<svg width="1200" height="560" viewBox="0 0 1200 560" xmlns="http://www.w3.org/2000/svg">
  <defs>
    <linearGradient id="bg" x1="0" y1="0" x2="1200" y2="560" gradientUnits="userSpaceOnUse">
      <stop offset="0%" stop-color="#040814"/><stop offset="55%" stop-color="#0a1020"/><stop offset="100%" stop-color="#140c22"/>
    </linearGradient>
    <radialGradient id="coreGlow" cx="50%" cy="50%" r="50%">
      <stop offset="0%" stop-color="#ff5a5a" stop-opacity="0.95"/><stop offset="45%" stop-color="#ff5a5a" stop-opacity="0.22"/><stop offset="100%" stop-color="#ff5a5a" stop-opacity="0"/>
    </radialGradient>
    <radialGradient id="blueGlow" cx="50%" cy="50%" r="50%">
      <stop offset="0%" stop-color="#22d3ee" stop-opacity="0.9"/><stop offset="50%" stop-color="#22d3ee" stop-opacity="0.18"/><stop offset="100%" stop-color="#22d3ee" stop-opacity="0"/>
    </radialGradient>
    <linearGradient id="hotLine" x1="0" y1="0" x2="1" y2="1">
      <stop offset="0%" stop-color="#ff5a5a"/><stop offset="50%" stop-color="#ff8a00"/><stop offset="100%" stop-color="#22d3ee"/>
    </linearGradient>
    <filter id="softGlow" x="-50%" y="-50%" width="200%" height="200%"><feGaussianBlur stdDeviation="8" result="blur"/><feMerge><feMergeNode in="blur"/><feMergeNode in="SourceGraphic"/></feMerge></filter>
    <filter id="tinyGlow" x="-80%" y="-80%" width="260%" height="260%"><feGaussianBlur stdDeviation="2.5" result="blur"/><feMerge><feMergeNode in="blur"/><feMergeNode in="SourceGraphic"/></feMerge></filter>
    <style>
      .title{font:700 30px 'Segoe UI',Arial,sans-serif;fill:#fff;letter-spacing:2px}.sub{font:500 13px 'Segoe UI',Arial,sans-serif;fill:#9fb0c7;letter-spacing:1px}.stat{font:700 14px 'Consolas','Courier New',monospace;fill:#ffb366}.small{font:600 11px 'Consolas','Courier New',monospace;fill:#94a3b8}.label{font:600 15px 'Segoe UI',Arial,sans-serif;fill:#e8eef7;letter-spacing:.5px}.micro{font:600 12px 'Segoe UI',Arial,sans-serif;fill:#d6deea}.linkA{stroke:url(#hotLine);stroke-width:1.4;fill:none;opacity:.28;stroke-linecap:round;stroke-dasharray:10 12;animation:dashA 10s linear infinite}.linkB{stroke:#22d3ee;stroke-width:1.1;fill:none;opacity:.18;stroke-linecap:round;stroke-dasharray:5 10;animation:dashB 14s linear infinite reverse}.mesh{stroke:rgba(255,255,255,0.08);stroke-width:1;fill:none}.nodeOuter{fill:rgba(255,255,255,0.03);stroke:rgba(255,255,255,0.16);stroke-width:1.1}.nodePulseA{animation:pulseA 2.4s ease-in-out infinite;transform-origin:center}.nodePulseB{animation:pulseB 3.2s ease-in-out infinite;transform-origin:center}.corePulse{animation:corePulse 3s ease-in-out infinite;transform-origin:600px 280px}.scan{animation:scan 6s linear infinite}.orbit1{animation:orbit1 24s linear infinite;transform-origin:600px 280px}.orbit2{animation:orbit2 36s linear infinite;transform-origin:600px 280px}.orbit3{animation:orbit3 18s linear infinite;transform-origin:600px 280px}.flickerA{animation:flickerA 1.7s ease-in-out infinite}.flickerB{animation:flickerB 2.6s ease-in-out infinite}.floatA{animation:floatA 5s ease-in-out infinite}.floatB{animation:floatB 6.5s ease-in-out infinite}.floatC{animation:floatC 7.2s ease-in-out infinite}
      @keyframes dashA{to{stroke-dashoffset:-260}}@keyframes dashB{to{stroke-dashoffset:-180}}@keyframes pulseA{0%,100%{opacity:.8;transform:scale(1)}50%{opacity:1;transform:scale(1.08)}}@keyframes pulseB{0%,100%{opacity:.65;transform:scale(1)}50%{opacity:1;transform:scale(1.12)}}@keyframes corePulse{0%,100%{transform:scale(1);opacity:.95}50%{transform:scale(1.03);opacity:1}}@keyframes scan{0%{transform:translateY(-140px);opacity:0}10%{opacity:.12}70%{opacity:.09}100%{transform:translateY(720px);opacity:0}}@keyframes orbit1{from{transform:rotate(0deg)}to{transform:rotate(360deg)}}@keyframes orbit2{from{transform:rotate(360deg)}to{transform:rotate(0deg)}}@keyframes orbit3{from{transform:rotate(0deg)}to{transform:rotate(-360deg)}}@keyframes flickerA{0%,100%{opacity:.45}50%{opacity:1}}@keyframes flickerB{0%,100%{opacity:.3}50%{opacity:.9}}@keyframes floatA{0%,100%{transform:translateY(0)}50%{transform:translateY(-6px)}}@keyframes floatB{0%,100%{transform:translateY(0)}50%{transform:translateY(8px)}}@keyframes floatC{0%,100%{transform:translateY(0)}50%{transform:translateY(-4px)}}
    </style>
  </defs>
  <rect width="1200" height="560" rx="24" fill="url(#bg)"/>
  <g opacity="0.06"><path d="M0 40H1200M0 80H1200M0 120H1200M0 160H1200M0 200H1200M0 240H1200M0 280H1200M0 320H1200M0 360H1200M0 400H1200M0 440H1200M0 480H1200M0 520H1200" stroke="#fff"/><path d="M80 0V560M160 0V560M240 0V560M320 0V560M400 0V560M480 0V560M560 0V560M640 0V560M720 0V560M800 0V560M880 0V560M960 0V560M1040 0V560M1120 0V560" stroke="#fff"/></g>
  <rect x="0" y="-140" width="1200" height="140" fill="url(#hotLine)" opacity="0.05" class="scan"/>
  <circle cx="240" cy="110" r="130" fill="#22d3ee" opacity="0.05"/><circle cx="980" cy="140" r="110" fill="#ff5a5a" opacity="0.05"/><circle cx="1000" cy="430" r="150" fill="#7c3aed" opacity="0.06"/><circle cx="180" cy="430" r="120" fill="#ff8a00" opacity="0.04"/>
  <g transform="translate(62,48)"><text class="title">NEURAL SYSTEM MAP</text><text y="28" class="sub">organic architecture view • category-only graph • public-safe</text></g>
  <g transform="translate(842,42)"><text class="stat">50+ systems</text><text x="118" class="stat">5.5M+ footprint</text><text x="258" class="stat">3.5+ years</text><text y="22" class="small">26+ local codebases • multi-machine build ecosystem</text></g>
  <g class="corePulse"><circle cx="600" cy="280" r="118" fill="url(#coreGlow)"/><circle cx="600" cy="280" r="78" fill="#0f172a" stroke="#ff5a5a" stroke-width="2.3" filter="url(#softGlow)"/><circle cx="600" cy="280" r="55" fill="#111827" stroke="rgba(255,255,255,0.14)" stroke-width="1.2"/><circle cx="600" cy="280" r="34" fill="url(#blueGlow)" opacity="0.55"/><text x="600" y="272" text-anchor="middle" class="label" style="font-size:19px;fill:#fff">SYSTEM</text><text x="600" y="298" text-anchor="middle" class="label" style="font-size:19px;fill:#fff">CORE</text></g>
  <circle cx="600" cy="280" r="136" class="mesh"/><circle cx="600" cy="280" r="186" class="mesh" opacity="0.6"/><circle cx="600" cy="280" r="236" class="mesh" opacity="0.4"/>
  <g class="orbit1"><circle cx="736" cy="280" r="4.5" fill="#ff8a00" filter="url(#tinyGlow)"/><circle cx="600" cy="144" r="4.5" fill="#22d3ee" filter="url(#tinyGlow)"/></g>
  <g class="orbit2"><circle cx="786" cy="280" r="4" fill="#ff5a5a" filter="url(#tinyGlow)"/><circle cx="600" cy="94" r="4" fill="#a78bfa" filter="url(#tinyGlow)"/></g>
  <g class="orbit3"><circle cx="836" cy="280" r="3.8" fill="#22d3ee" filter="url(#tinyGlow)"/><circle cx="600" cy="44" r="3.8" fill="#f472b6" filter="url(#tinyGlow)"/></g>
  <path d="M600 280 C470 205,338 170,235 170" class="linkA"/><path d="M600 280 C730 205,862 170,965 170" class="linkA"/><path d="M600 280 C470 330,336 390,228 400" class="linkA"/><path d="M600 280 C730 332,865 388,972 398" class="linkA"/><path d="M600 280 C600 200,600 152,600 124" class="linkA"/><path d="M600 280 C600 362,600 418,600 454" class="linkA"/><path d="M600 280 C520 274,448 276,378 278" class="linkB"/><path d="M600 280 C680 274,752 276,826 278" class="linkB"/>
  <path d="M235 170 C340 210,430 238,600 280" class="linkB"/><path d="M965 170 C860 210,772 238,600 280" class="linkB"/><path d="M228 400 C344 360,450 326,600 280" class="linkB"/><path d="M972 398 C850 360,744 328,600 280" class="linkB"/><path d="M600 124 C594 164,596 212,600 280" class="linkB"/><path d="M600 454 C604 418,602 362,600 280" class="linkB"/>
  <g class="floatA"><circle cx="235" cy="170" r="34" class="nodeOuter nodePulseA"/><circle cx="235" cy="170" r="7" fill="#22d3ee" class="flickerA" filter="url(#tinyGlow)"/><text x="235" y="176" text-anchor="middle" class="label">AI / AGENTS</text></g>
  <g class="floatB"><circle cx="965" cy="170" r="38" class="nodeOuter nodePulseB"/><circle cx="965" cy="170" r="7" fill="#ff8a00" class="flickerB" filter="url(#tinyGlow)"/><text x="965" y="176" text-anchor="middle" class="label">DECISION</text></g>
  <g class="floatC"><circle cx="228" cy="400" r="36" class="nodeOuter nodePulseB"/><circle cx="228" cy="400" r="7" fill="#a78bfa" class="flickerA" filter="url(#tinyGlow)"/><text x="228" y="406" text-anchor="middle" class="label">SIMULATION</text></g>
  <g class="floatA"><circle cx="972" cy="398" r="38" class="nodeOuter nodePulseA"/><circle cx="972" cy="398" r="7" fill="#22d3ee" class="flickerB" filter="url(#tinyGlow)"/><text x="972" y="404" text-anchor="middle" class="label">INFRA</text></g>
  <g class="floatB"><circle cx="600" cy="124" r="34" class="nodeOuter nodePulseA"/><circle cx="600" cy="124" r="7" fill="#ff5a5a" class="flickerA" filter="url(#tinyGlow)"/><text x="600" y="130" text-anchor="middle" class="label">AUTOMATION</text></g>
  <g class="floatC"><circle cx="600" cy="454" r="36" class="nodeOuter nodePulseB"/><circle cx="600" cy="454" r="7" fill="#ff8a00" class="flickerB" filter="url(#tinyGlow)"/><text x="600" y="460" text-anchor="middle" class="label">COMPUTE / DATA</text></g>
  <g class="floatA"><circle cx="378" cy="278" r="28" class="nodeOuter nodePulseA"/><circle cx="378" cy="278" r="6.5" fill="#f472b6" class="flickerB" filter="url(#tinyGlow)"/><text x="378" y="284" text-anchor="middle" class="micro">SECURITY</text></g>
  <g class="floatB"><circle cx="826" cy="278" r="30" class="nodeOuter nodePulseB"/><circle cx="826" cy="278" r="6.5" fill="#22d3ee" class="flickerA" filter="url(#tinyGlow)"/><text x="826" y="284" text-anchor="middle" class="micro">BOTS</text></g>
  <g><circle cx="150" cy="112" r="14" class="nodeOuter"/><text x="150" y="117" text-anchor="middle" class="micro">LLM</text><path d="M150 112 C176 122,200 142,235 170" class="linkB"/><circle cx="330" cy="118" r="16" class="nodeOuter"/><text x="330" y="123" text-anchor="middle" class="micro">pipes</text><path d="M330 118 C296 132,264 148,235 170" class="linkB"/><circle cx="1042" cy="110" r="16" class="nodeOuter"/><text x="1042" y="115" text-anchor="middle" class="micro">models</text><path d="M1042 110 C1020 130,1000 146,965 170" class="linkB"/><circle cx="1086" cy="224" r="16" class="nodeOuter"/><text x="1086" y="229" text-anchor="middle" class="micro">exec</text><path d="M1086 224 C1042 212,1010 194,965 170" class="linkB"/><circle cx="126" cy="442" r="16" class="nodeOuter"/><text x="126" y="447" text-anchor="middle" class="micro">interactive</text><path d="M126 442 C154 430,186 415,228 400" class="linkB"/><circle cx="330" cy="470" r="16" class="nodeOuter"/><text x="330" y="475" text-anchor="middle" class="micro">prob</text><path d="M330 470 C292 446,262 424,228 400" class="linkB"/><circle cx="900" cy="468" r="16" class="nodeOuter"/><text x="900" y="473" text-anchor="middle" class="micro">net</text><path d="M900 468 C924 446,946 426,972 398" class="linkB"/><circle cx="1066" cy="454" r="16" class="nodeOuter"/><text x="1066" y="459" text-anchor="middle" class="micro">ops</text><path d="M1066 454 C1034 434,1006 418,972 398" class="linkB"/></g>
  <g transform="translate(62,530)"><text class="small">most work private / experimental / iterative • public repositories represent the visible surface only</text></g>
</svg>
